<svg width="31" height="26" viewBox="0 0 31 26" fill="none" xmlns="http://www.w3.org/2000/svg">
<path d="M20.0471 21.8199C20.5441 21.7056 20.8424 21.1895 20.6267 20.7274C20.0232 19.4343 19.0238 18.298 17.7256 17.4431C16.14 16.399 14.1972 15.833 12.1986 15.833C10.1999 15.833 8.25711 16.399 6.67148 17.4431C5.3733 18.298 4.37393 19.4343 3.77037 20.7274C3.55468 21.1895 3.85301 21.7056 4.35001 21.8199C9.51497 23.0076 14.8821 23.0076 20.0471 21.8199Z" fill="white" stroke="#16263F" stroke-width="0.674603" stroke-linecap="round"/>
<ellipse cx="12.1985" cy="8.75033" rx="4.72222" ry="4.95833" fill="white" stroke="#16263F" stroke-width="0.674603" stroke-linecap="round"/>
<path d="M27.2906 23.0808C27.8777 22.9532 28.2287 22.3413 27.9569 21.8056C27.2569 20.4263 26.1184 19.2143 24.6473 18.2985C22.8177 17.1594 20.5761 16.542 18.2699 16.542C15.9638 16.542 13.7221 17.1594 11.8925 18.2985C10.4215 19.2143 9.28298 20.4263 8.583 21.8056C8.31112 22.3413 8.66219 22.9532 9.24924 23.0808L9.67095 23.1725C15.3374 24.4044 21.2024 24.4044 26.8689 23.1725L27.2906 23.0808Z" fill="white" stroke="#16263F" stroke-width="0.674603" stroke-linecap="round"/>
<ellipse cx="18.2699" cy="7.68685" rx="6.07143" ry="6.02083" fill="white" stroke="#16263F" stroke-width="0.674603" stroke-linecap="round"/>
<rect x="20.5715" y="12.25" width="10" height="8.25" rx="2.85714" fill="white"/>
<rect x="20.5715" y="12.25" width="10" height="8.25" rx="2.85714" stroke="#16263F" stroke-width="0.674603"/>
<path d="M24.1279 16.9447L25.4634 18.1522L25.4634 18.1522C25.4877 18.1742 25.4999 18.1852 25.5124 18.1921C25.5492 18.2124 25.5939 18.2124 25.6308 18.1921C25.6433 18.1852 25.6554 18.1742 25.6797 18.1522L25.6797 18.1522L27.0152 16.9447C27.4076 16.5899 27.4548 15.9905 27.1228 15.5786L27.0827 15.5289C26.6954 15.0484 25.9405 15.131 25.6663 15.684C25.6274 15.7623 25.5157 15.7623 25.4768 15.684C25.2026 15.131 24.4477 15.0484 24.0604 15.5289L24.0203 15.5786C23.6883 15.9905 23.7355 16.5899 24.1279 16.9447Z" fill="#16263F" stroke="#16263F" stroke-width="0.49062"/>
</svg>
