<svg width="38" height="25" viewBox="0 0 38 25" fill="none" xmlns="http://www.w3.org/2000/svg">
<path d="M15.1129 19.4902C15.4679 19.4086 15.681 19.0399 15.527 18.7098C15.0958 17.7862 14.382 16.9746 13.4547 16.364C12.3222 15.6181 10.9344 15.2139 9.50684 15.2139C8.07924 15.2139 6.69153 15.6181 5.55894 16.364C4.63167 16.9746 3.91783 17.7862 3.48672 18.7098C3.33265 19.0399 3.54575 19.4086 3.90074 19.4902C7.59 20.3386 11.4237 20.3386 15.1129 19.4902Z" fill="white" stroke="#16263F" stroke-width="0.477844" stroke-linecap="round"/>
<ellipse cx="9.5068" cy="10.154" rx="3.37301" ry="3.54167" fill="white" stroke="#16263F" stroke-width="0.477844" stroke-linecap="round"/>
<path d="M34.1129 19.4902C34.4679 19.4086 34.681 19.0399 34.527 18.7098C34.0958 17.7862 33.382 16.9746 32.4547 16.364C31.3222 15.6181 29.9344 15.2139 28.5068 15.2139C27.0792 15.2139 25.6915 15.6181 24.5589 16.364C23.6317 16.9746 22.9178 17.7862 22.4867 18.7098C22.3327 19.0399 22.5457 19.4086 22.9007 19.4902C26.59 20.3386 30.4237 20.3386 34.1129 19.4902Z" fill="white" stroke="#16263F" stroke-width="0.477844" stroke-linecap="round"/>
<ellipse cx="28.5068" cy="10.154" rx="3.37301" ry="3.54167" fill="white" stroke="#16263F" stroke-width="0.477844" stroke-linecap="round"/>
<path d="M28.2997 22.7126C28.8819 22.5861 29.23 21.9793 28.9611 21.4477C28.2614 20.065 27.1213 18.85 25.6473 17.9323C23.8177 16.7932 21.576 16.1758 19.2699 16.1758C16.9638 16.1758 14.7221 16.7932 12.8925 17.9323C11.4185 18.85 10.2784 20.065 9.57877 21.4477C9.3098 21.9793 9.65792 22.5861 10.2401 22.7126L10.7426 22.8219C16.3618 24.0435 22.178 24.0435 27.7972 22.8219L28.2997 22.7126Z" fill="white" stroke="#16263F" stroke-width="0.668981" stroke-linecap="round"/>
<ellipse cx="19.2699" cy="7.32064" rx="6.07142" ry="6.02083" fill="white" stroke="#16263F" stroke-width="0.668981" stroke-linecap="round"/>
</svg>
