<?xml version="1.0" encoding="UTF-8"?>
<svg id="Layer_2" data-name="Layer 2" xmlns="http://www.w3.org/2000/svg" viewBox="0 0 49.19 136.58">
  <defs>
    <style>
      .cls-1 {
        fill: #f0b287;
      }

      .cls-1, .cls-2, .cls-3, .cls-4, .cls-5, .cls-6, .cls-7, .cls-8, .cls-9 {
        stroke-width: 0px;
      }

      .cls-2 {
        fill: #1e2724;
      }

      .cls-3 {
        fill: #010101;
      }

      .cls-4 {
        fill: #2d3834;
      }

      .cls-5 {
        fill: #ffbd8f;
      }

      .cls-6 {
        fill: #0070bf;
      }

      .cls-7 {
        fill: #007ad1;
      }

      .cls-8 {
        fill: #502b0d;
      }

      .cls-9 {
        fill: #7b3f13;
      }
    </style>
  </defs>
  <g id="Layer_3" data-name="Layer 3">
    <g>
      <g>
        <g>
          <path class="cls-1" d="m20.58,23.12c-1.35.97-1.81,2.27-2.16,4.37-.34,2.1-2.55,12.83-3.09,14.6s-.3,4.08,2.08,5.06c2.38.98,2.92,1.08,3.71-.59.79-1.66,1.8-9.19,1.86-11.93.06-2.74-2.41-11.51-2.41-11.51Z"/>
          <path class="cls-1" d="m17.5,42.36c-1.38-.17-1.74-1-2.23.12s-1.59,14.61-2.37,16c-.78,1.39-3.06,5.09-3.06,5.09,0,0,.09,3.37.19,4.24.1.87.28,2,.52,2.17s1,.02,1,.02l.37.95s.61.06.88-.1c.26-.16.34-.28.34-.28l.52-.73.06-.63s.84.38.91-.58c.06-.96.18-2.77.18-2.77,0,0,1.48-2.77,1.78-4.51.3-1.75.15-2.9.15-2.9,0,0,4.8-10.44,4.97-12.08.17-1.64-4.2-4-4.2-4Z"/>
          <path class="cls-7" d="m16.34,36.12c-1.89,6.74-2.14,8.08-2.23,9.32-.09,1.25-1.55,10.64-1.55,11.76s5.04,1.37,5.12,1.24c.09-.13,4.82-16.32,4.86-18.12.04-1.81-6.21-4.2-6.21-4.2Z"/>
          <path class="cls-1" d="m13.94,59.13c1.22-.31,1.54.78,1.47,1.46-.07.68-1.68,2.21-2.15,2.24-.47.03-.98.13-.98.13,0,0-.86,1.91-1.2,2.22-.34.3-.99.65-1.47.42-.48-.23-.15-.96.26-1.18.41-.22.7-.55.7-.55,0,0,.52-2.4,1.02-2.87s2.36-1.87,2.36-1.87Z"/>
          <path class="cls-7" d="m25.19,21.15c-3.04.11-4.58-.05-6.37,3.15s-2.17,10.07-2.48,11.81c-.31,1.75,7.9,4.42,9.9,2.03,2-2.4-1.05-16.99-1.05-16.99Z"/>
        </g>
        <g>
          <path class="cls-3" d="m20.61,129.95s1.35.57,1.54,1.4c.19.83-.06,2.23-.06,2.23,0,0-2.02,1.68-3.43,1.79-1.42.1-1.43-.23-2.24.17-.81.4-.65.67-1.7.91-1.05.24-4.76.27-6.68-.7-1.91-.96-2.4-1.58-2.58-1.97-.07-.17.29-1.67.58-1.76.69-.2,7.57-.52,7.57-.52l7-1.55Z"/>
          <path class="cls-3" d="m40.23,125.03c-1.9,3.26-2.13,3.08-2.36,4.07-.23,1-.23,1.27,0,1.86.23.59,1.64,1.14,4.26.44,2.58-.69,4.08-2.75,4.41-3.58.33-.84.46-1.79.73-2.21.26-.42,2.32-3.91,1.85-5.52-.21-.72-.9-1.26-1.31-1.52-.94-.59-7.57,6.46-7.57,6.46Z"/>
          <path class="cls-9" d="m14.94,125.2s-.51,1.75-1.4,2.57c-.88.81-6.11,2.98-6.64,3.21-.53.23-.81,1.74-.81,1.74,0,0,1.73,1.74,3.51,2.16,1.78.42,4.17.77,5.74.1.79-.33,1.15-.7,1.93-1.06.39-.18.82-.01,1.33-.17.51-.16,1.32-.51,1.71-.74,1.17-.67,1.24-1.2,1.26-1.9.01-.39.16-3.68-.02-4.77-.18-1.09-6.61-1.16-6.61-1.16Z"/>
          <path class="cls-9" d="m41.36,117.12s-.26,4.1-.58,4.71c-.32.61-2.75,5.08-2.97,6.08s.25,2.18.25,2.18c0,0,.78,1.32,3.85.32,3.07-1,4.19-3.43,4.59-5.07.11-.44.45-1.33.66-1.68.22-.36.69-.94.86-1.37.28-.71.8-1.98.48-3.06-.22-.77-1.9-3.48-1.9-3.48l-5.23,1.37Z"/>
          <path class="cls-2" d="m18.82,60.69c-1.81,4.03-2.74,13.55-3.07,20.69-.32,7.14-1.04,16.58-.62,18.91.42,2.32,5.42,2.78,6.94,1.84s2.91-2.1,3.03-3.39c.13-1.29,2.81-15.98,3.33-20.82s2.13-12.2,2.13-12.2l-11.74-5.02Z"/>
          <path class="cls-2" d="m15.78,92.12c-.92,3.62-.51,1.65-.77,5.65-.26,4-1.19,27.7-1.1,28.98.09,1.29,7.73,2.28,7.85.68.06-.73,2.99-16.52,3.64-21.04.65-4.52-.29-7.66-.29-7.66l-9.33-6.62Z"/>
          <path class="cls-4" d="m22.71,64.99c.4,3.29-.51,10.04.95,11.27s4,2.03,4,2.03c0,0,5.49,20.44,5.97,21.99s2.1,2.71,5,1.68,3.42-3.13,3.26-4.26c-.16-1.13.13-8.91.45-13.69.62-9.14.16-18.91-2-20.76-2.5-2.14-17.64,1.74-17.64,1.74Z"/>
          <path class="cls-4" d="m33.79,95.34c-.1,1.97-.84,4.19.19,5.7,1.04,1.5,5.78,17.04,6.2,18.66.42,1.61,5.17.41,6.6-.8,1.27-1.07,1.16-1.6.74-3.15-.42-1.55-1.98-10.37-3.37-14.53s-5-8.88-5-8.88l-5.36,3Z"/>
          <path class="cls-6" d="m31.95,22.86c3.55,1.16,11.36,6.11,11.89,6.8,2.42,3.14,2.34,12.56.92,19.01-1.42,6.46-3.87,14.25-4.05,15.7-.17,1.45-7.14,3.96-10.82,3.25-3.68-.71-6.25-1.84-8.25-3.13-2-1.29-2.95-3.34-2.95-3.34,0,0,.28-9.07-.11-12.11-1.08-8.33.68-21.05,2.51-23.88,2.24-3.44,3.68-3.05,5.96-3.11s4.89.8,4.89.8Z"/>
          <path class="cls-1" d="m34.45,11.86c-1.42,4.36-1.16,8.39-1.03,9.3.13.9.78,2.87,1.03,3.91.26,1.03-.27,3.36-3.8,4.59-1.83.64-4.2.14-5.32-.75-.84-.67-1.18-3.06-1.24-3.42-.06-.36-1.01-5.45-.88-6.52.13-1.07,5.23-8.91,5.23-8.91l6.01,1.81Z"/>
          <path class="cls-1" d="m31.15,9.24s-.36,5.62-.45,7.49c-.1,1.87-.35,4.31-.64,4.6-.29.29-4.91,3.57-6.33,3.8-1.42.23-2.71-.6-3.21-1.29-.59-.82-1.29-6.97-1.39-9.43-.1-2.45.23-7.17,1.07-8.14.84-.97,3.23-3.23,6.88-2.94s4.07,5.91,4.07,5.91Z"/>
          <path class="cls-8" d="m22.01,8.69c2.89,1.34,5.42,1.19,5.55,1.29.13.1.04,1.94.14,2.32.1.39,1.23.07,1.39,1,.16.94.14,3.41.14,3.41l1.53.04s0-3.53.91-4.17c.9-.65,1.92.2,1.94,1.47s-.31,2.31-.44,3.37c-.21,1.71.17,2.94.17,2.84,0-.1,1.36-2.97,1.77-3.91,1.07-2.46,1.85-6.28,1.66-8.92-.26-3.64-2.05-5.29-5.03-6.1-4.31-3.03-9.09-.24-10.87,1.89-1.78,2.13-1.5,3.53-1.57,4.15-.06.61-.32,2.26-.03,2.94.33-2.36.64-3.49.64-3.49,0,0,.3,1.04,2.1,1.88Z"/>
          <path class="cls-1" d="m31.35,14.51c.06-1.29.87-1.69,1.86-1.75.99-.06.89,1.62.4,2.64-.48,1.02-.87,2.4-1.65,2.4s-.94-.42-.81-.97c.12-.51.19-2.32.19-2.32Z"/>
        </g>
      </g>
      <path class="cls-7" d="m26.3,28.93c-1.95-.6-2.19-3.29-2.19-3.29,0,0-.68.71-.58,2.2s.6,3.65.8,4.07c.19.42,2.52-1.96,2.52-1.96l1.31,3.42s1.88.03,4.71-1.61c2.83-1.65,3.75-3.45,3.56-4.66-.19-1.21-.9-2-1.23-2.65-.32-.65-1.25-1.11-1.25-1.11l.28,1.3s.55,2.92-2.97,4.26c-2.86,1.09-4.97.03-4.97.03Z"/>
      <g>
        <path class="cls-7" d="m42.81,28.85c-2.84-.57-4.93.28-6.63,3.07-1.12,1.83-7.17,17.01-7.59,17.47-.43.46-.26,7.99,2.03,7.78,2.28-.22,7.32-8.04,9.3-10.76,1.98-2.72,4.23-7.01,4.82-9.17s.13-5.83-.48-7.11c-.24-.51-1.44-1.27-1.44-1.27Z"/>
        <polygon class="cls-2" points="7.76 51.85 1.91 48.47 0 33.36 5.85 36.74 7.76 51.85"/>
        <polygon class="cls-2" points="9.29 50.99 7.76 51.85 0 33.36 1.53 32.5 7.37 35.88 9.29 50.99"/>
        <path class="cls-1" d="m8.21,42.21c-.44-.09-1.16.2-1.16.2,0,0-2.01-1.46-2.92-2.46-.64-.7-2.37-2.76-2.95-3.16-.58-.41-.91.13-.56,1.18.47,1.4,3.1,4.26,3.1,4.48s-.28.43-.28.43c0,0-2.01-1.25-2.01-1.55s-.06-1.08-.06-1.08c0,0-.58-.43-.84-.17-.26.26-.54,2.11-.54,2.11l.39,1.75s.04.86.62,1.49c.58.62,1.44,2.18,2.11,2.67.74.53,3.03,1.36,4.47,2.07.32.16,3.77,1.11,5.06,1.67,4.43,1.91,13.18,5.77,17.95,5.34.95-3.14-.43-7.32-1.72-7.71-1.29-.39-13.82-1.89-15.8-3.05l-1.98-1.17-2.89-3.03Z"/>
        <path class="cls-7" d="m29.52,49.23c-5.2-.74-15.37-2.97-15.82-3.03s-.49.27-.49.27c0,0-1.47,3.87-1.47,5.01,0,1.14,11.59,5.07,14.78,5.72s4.09.74,5.76-.99-2.76-6.98-2.76-6.98Z"/>
        <path class="cls-5" d="m6.71,38.52c-.04-.65-.08-.56-.61-.6-.54-.04-.65.76-.69,1.38-.04.62.32,1.42.71,1.64.39.22.92.96.92.96,0,0,.1.23.19.55.05.19-.23.67.06,1.45.49,1.3,1.66,2.32,2.48,2.04.82-.28.84-.52.9-1.12s-1.1-3.11-1.31-3.39c-.22-.28-1.47-1.36-1.95-1.72-.47-.37-.7-1.18-.7-1.18Z"/>
      </g>
    </g>
  </g>
</svg>