<svg width="32" height="32" viewBox="0 0 32 32" fill="none" xmlns="http://www.w3.org/2000/svg">
<g filter="url(#filter0_d_30_1457)">
<circle cx="15" cy="14" r="11.5" fill="url(#paint0_linear_30_1457)" stroke="url(#paint1_linear_30_1457)"/>
<circle cx="15" cy="14" r="9.75" fill="url(#paint2_linear_30_1457)" stroke="url(#paint3_linear_30_1457)" stroke-width="0.5"/>
<path d="M14.0234 15.4231L13.1106 15.1331C11.7682 14.7067 11.0971 14.4935 10.9557 13.9643C10.8143 13.4352 11.2898 12.9157 12.2407 11.8767L15.9674 7.80478L15.9674 7.80478C16.5687 7.14776 16.8694 6.81924 17.0433 6.91984C17.2173 7.02044 17.0824 7.44487 16.8128 8.29373L15.6514 11.9498C15.58 12.1745 15.5443 12.2868 15.592 12.3788C15.6396 12.4707 15.7519 12.5064 15.9765 12.5777L16.8894 12.8677C18.2317 13.2941 18.9029 13.5073 19.0443 14.0365C19.1856 14.5657 18.7102 15.0852 17.7593 16.1242L14.0326 20.1961C13.4312 20.8531 13.1306 21.1816 12.9566 21.081C12.7827 20.9804 12.9175 20.556 13.1872 19.7071L14.3486 16.051C14.4199 15.8264 14.4556 15.7141 14.408 15.6221C14.3604 15.5301 14.2481 15.4945 14.0234 15.4231Z" fill="#288F44"/>
</g>
<defs>
<filter id="filter0_d_30_1457" x="0" y="0" width="32" height="32" filterUnits="userSpaceOnUse" color-interpolation-filters="sRGB">
<feFlood flood-opacity="0" result="BackgroundImageFix"/>
<feColorMatrix in="SourceAlpha" type="matrix" values="0 0 0 0 0 0 0 0 0 0 0 0 0 0 0 0 0 0 127 0" result="hardAlpha"/>
<feOffset dx="1" dy="2"/>
<feGaussianBlur stdDeviation="2"/>
<feComposite in2="hardAlpha" operator="out"/>
<feColorMatrix type="matrix" values="0 0 0 0 0.0392157 0 0 0 0 0.117647 0 0 0 0 0.145098 0 0 0 0.8 0"/>
<feBlend mode="normal" in2="BackgroundImageFix" result="effect1_dropShadow_30_1457"/>
<feBlend mode="normal" in="SourceGraphic" in2="effect1_dropShadow_30_1457" result="shape"/>
</filter>
<linearGradient id="paint0_linear_30_1457" x1="15" y1="2" x2="15" y2="26" gradientUnits="userSpaceOnUse">
<stop stop-color="#B9EB64"/>
<stop offset="1" stop-color="#94D55B"/>
</linearGradient>
<linearGradient id="paint1_linear_30_1457" x1="15" y1="2" x2="15" y2="26" gradientUnits="userSpaceOnUse">
<stop stop-color="#D1FF77"/>
<stop offset="1" stop-color="#548B43"/>
</linearGradient>
<linearGradient id="paint2_linear_30_1457" x1="15" y1="4" x2="15" y2="24" gradientUnits="userSpaceOnUse">
<stop stop-color="#C0F665"/>
<stop offset="1" stop-color="#A3E469"/>
</linearGradient>
<linearGradient id="paint3_linear_30_1457" x1="15" y1="4" x2="15" y2="24" gradientUnits="userSpaceOnUse">
<stop stop-color="#D1FF86"/>
<stop offset="1" stop-color="#6EA34E"/>
</linearGradient>
</defs>
</svg>
