<?xml version="1.0" encoding="utf-8"?>
<svg viewBox="0 0 500 670" xmlns="http://www.w3.org/2000/svg">
  <defs>
    <clipPath id="clippath0" transform="">
      <path d="M 0 500 L 500 500 L 500 0 L 0 0 Z" style="fill: none; clip-rule: nonzero;"/>
    </clipPath>
  </defs>
  <g class="page-1" transform="matrix(0.9999999999999999, 0, 0, -0.9999999999999999, -1.567346119394088, 556.5426718673507)">
    <g style="clip-path: url('#clippath0');">
      <g transform="translate(182.0217 306.4253)">
        <path d="M 0 0 L -0.301 0.163 C -0.527 0.286 -0.695 0.336 -0.806 0.314 C -0.917 0.292 -0.972 0.192 -0.972 0.016 C -0.972 -0.238 -0.846 -0.437 -0.595 -0.583 C -0.414 -0.687 -0.27 -0.711 -0.162 -0.654 C -0.054 -0.597 0 -0.469 0 -0.271 Z M 0.229 -1.658 L 0.079 -1.124 L 0.059 -1.111 C -0.072 -1.226 -0.207 -1.28 -0.346 -1.273 C -0.484 -1.267 -0.665 -1.199 -0.888 -1.07 C -1.161 -0.911 -1.377 -0.696 -1.534 -0.424 C -1.691 -0.153 -1.771 0.15 -1.771 0.484 C -1.771 0.833 -1.665 1.029 -1.453 1.073 C -1.241 1.116 -0.922 1.023 -0.495 0.793 L 0 0.524 L 0 0.668 C 0 1.002 -0.147 1.255 -0.443 1.426 C -0.672 1.558 -0.939 1.634 -1.247 1.653 L -1.505 2.409 C -1.177 2.417 -0.812 2.306 -0.413 2.074 C -0.03 1.853 0.263 1.586 0.467 1.276 C 0.671 0.965 0.773 0.614 0.773 0.221 L 0.773 -1.973 Z" style="fill: rgb(255, 255, 255); fill-opacity: 1;"/>
      </g>
    </g>
    <g style="clip-path: url('#clippath0');">
      <g transform="translate(184.3743 303.5381)">
        <path d="M 0 0 L -0.778 0.451 L -0.778 5.032 L 0 4.582 Z" style="fill: rgb(255, 255, 255); fill-opacity: 1;"/>
      </g>
    </g>
    <g style="clip-path: url('#clippath0');">
      <g transform="translate(185.969 302.6147)">
        <path d="M 0 0 L -0.778 0.451 L -0.778 5.032 L 0 4.582 Z" style="fill: rgb(255, 255, 255); fill-opacity: 1;"/>
      </g>
    </g>
    <g style="clip-path: url('#clippath0');">
      <g transform="translate(187.4055 303.4351)">
        <path d="M 0 0 C 0 -0.326 0.046 -0.599 0.139 -0.82 C 0.231 -1.041 0.383 -1.211 0.592 -1.333 C 0.799 -1.453 0.948 -1.456 1.039 -1.343 C 1.13 -1.229 1.176 -1.009 1.176 -0.681 C 1.176 -0.355 1.13 -0.084 1.038 0.132 C 0.946 0.348 0.796 0.517 0.587 0.638 C 0.379 0.758 0.229 0.764 0.138 0.655 C 0.046 0.546 0 0.328 0 0 M 1.972 -1.142 C 1.972 -1.678 1.85 -2.026 1.604 -2.187 C 1.359 -2.347 1.019 -2.301 0.581 -2.048 C 0.308 -1.889 0.066 -1.68 -0.144 -1.421 C -0.353 -1.161 -0.513 -0.869 -0.625 -0.545 C -0.737 -0.221 -0.794 0.114 -0.794 0.459 C -0.794 0.997 -0.672 1.345 -0.429 1.502 C -0.186 1.66 0.156 1.611 0.597 1.356 C 0.87 1.197 1.112 0.989 1.321 0.73 C 1.53 0.472 1.691 0.182 1.804 -0.141 C 1.916 -0.463 1.972 -0.797 1.972 -1.142" style="fill: rgb(255, 255, 255); fill-opacity: 1;"/>
      </g>
    </g>
    <g>
      <g style="clip-path: url('#clippath0');">
        <g transform="translate(403.345 170.3828)">
          <path d="M 0 0 C -0.781 -1.308 -0.41 -2.2 -2.012 -5.751 C -3.612 -9.302 -3.622 -10.938 -0.55 -11.451 C 2.957 -12.035 4.632 -6.67 5.188 -5.11 C 5.744 -3.551 6.898 -3.963 6.21 0.15 C 5.816 1.018 3.066 -0.866 0 0" style="fill: rgb(57, 62, 63); fill-opacity: 1;"/>
        </g>
      </g>
      <g style="clip-path: url('#clippath0');">
        <g transform="translate(395.1956 265.603)">
          <path d="M 0 0 L -1.594 -21.156 L -1.601 -21.246 C -1.616 -21.458 -1.668 -21.667 -1.741 -21.855 L -9.077 -40.296 C -9.475 -41.295 -10.607 -41.783 -11.606 -41.385 C -12.557 -41.007 -13.043 -39.958 -12.745 -38.997 L -6.834 -20.05 L -6.981 -20.75 L -5.387 0.406 C -5.274 1.894 -3.978 3.008 -2.49 2.896 C -1.003 2.784 0.112 1.487 0 0" style="fill: rgb(255, 203, 174); fill-opacity: 1;"/>
        </g>
      </g>
      <g style="clip-path: url('#clippath0');">
        <g transform="translate(396.2415 259.9429)">
          <path d="M 0 0 L -7.56 0.773 L -6.857 7.64 C -6.644 9.728 -4.778 11.247 -2.69 11.033 C -0.604 10.82 0.916 8.955 0.702 6.867 Z" style="fill: rgb(148, 213, 224); fill-opacity: 1;"/>
        </g>
      </g>
      <g style="clip-path: url('#clippath0');">
        <g transform="translate(386.7893 224.5508)">
          <path d="M 0 0 C -0.224 -2.015 -1.475 -3.529 -2.794 -3.383 C -4.113 -3.235 -5.001 -1.483 -4.777 0.531 C -4.553 2.546 -3.302 4.06 -1.982 3.913 C -0.663 3.766 0.225 2.014 0 0" style="fill: rgb(255, 203, 174); fill-opacity: 1;"/>
        </g>
      </g>
      <g style="clip-path: url('#clippath0');">
        <g transform="translate(383.8997 225.1104)">
          <path d="M 0 0 C -0.128 -1.147 -0.779 -2.017 -1.455 -1.941 C -2.131 -1.866 -2.575 -0.875 -2.448 0.272 C -2.32 1.419 -1.669 2.288 -0.993 2.213 C -0.317 2.138 0.127 1.147 0 0" style="fill: rgb(255, 203, 174); fill-opacity: 1;"/>
        </g>
      </g>
      <g style="clip-path: url('#clippath0');">
        <g transform="translate(401.2434 238.5)">
          <path d="M 0 0 C 6.446 -3.768 -1.609 -36.857 -1.609 -36.857 L -2.088 -63.526 C -2.242 -65.323 -7.704 -65.595 -8.292 -63.478 C -8.292 -63.478 -8.973 -43.482 -9.699 -36.857 C -10.992 -19.422 -12.422 -8.757 -11.18 -7.491 C -10.512 -4.294 -5.565 3.253 0 0" style="fill: rgb(66, 109, 127); fill-opacity: 1;"/>
        </g>
      </g>
      <g style="clip-path: url('#clippath0');">
        <g transform="translate(400.9338 207.5635)">
          <path d="M 0 0 C 0 0 -0.711 4.888 -0.927 6.793 C -1.144 8.698 -3.396 10.82 -3.785 12.726 C -3.785 12.726 -3.785 9.001 -2.399 7.053 C -1.014 5.104 0 0 0 0" style="fill: rgb(50, 92, 107); fill-opacity: 1;"/>
        </g>
      </g>
      <g style="clip-path: url('#clippath0');">
        <g transform="translate(411.637 233.6279)">
          <path d="M 0 0 C 6.445 -3.768 -1.956 -37.674 -1.956 -37.674 L -2.089 -63.526 C -2.242 -65.324 -7.626 -65.638 -8.292 -63.478 L -10.703 -33.656 L -10.703 -2.339 C -10.703 -2.339 -5.566 3.253 0 0" style="fill: rgb(66, 109, 127); fill-opacity: 1;"/>
        </g>
      </g>
      <g style="clip-path: url('#clippath0');">
        <g transform="translate(397.7112 267.4478)">
          <path d="M 0 0 C -7.341 2.317 -1.167 -25.372 -4.705 -30.811 C -4.705 -30.811 -10.892 -33.703 -13.427 -30.764 C -13.116 -24.004 -10.115 1.342 -3.27 2.317 C 3.576 3.293 0 0 0 0" style="fill: rgb(57, 62, 63); fill-opacity: 1;"/>
        </g>
      </g>
      <g style="clip-path: url('#clippath0');">
        <g transform="translate(389.6526 231.0645)">
          <path d="M 0 0 C 1.43 7.08 -0.755 23.604 0.632 32.205 C 1.156 35.454 5.459 38.686 9.434 37.11 C 12.552 35.778 12.849 38.428 14.264 37.587 C 18.291 33.124 21.899 34.18 24.229 29.977 C 28.083 23.524 18.412 19.842 24.668 -1.964 C 23.97 -8.799 3.104 -12.408 0 0" style="fill: rgb(194, 231, 239); fill-opacity: 1;"/>
        </g>
      </g>
      <g style="clip-path: url('#clippath0');">
        <g transform="translate(392.9329 175.5684)">
          <path d="M 0 0 C -0.591 -0.043 -4.554 -4.398 -6.989 -5.471 C -8.072 -5.947 -6.279 -9.635 -2.707 -7.99 C 1.109 -5.786 4.146 -3.941 6.008 -2.956 C 7.206 -2.241 6.831 1.245 6.312 1.375 C 5.691 1.494 5.088 -0.726 2.912 -0.791 C 0.834 -0.853 0.209 -0.5 0 0" style="fill: rgb(57, 62, 63); fill-opacity: 1;"/>
        </g>
      </g>
      <g style="clip-path: url('#clippath0');">
        <g transform="translate(405.0715 266.3379)">
          <path d="M 0 0 C 0 0 1.999 -0.569 0.205 -5.666 C -1.368 -10.135 -6.53 -22.686 -6.147 -36.521 C -5.115 -37.042 5.398 -37.522 8.874 -33.363 C 8.874 -33.363 7.253 -24.896 8.316 -19.093 C 6.497 -20.369 1.95 -20.93 2.431 -10.276 C 2.746 -3.268 6.275 -4.09 8.712 -5.083 C 8.874 -2.29 0.933 -0.341 -0.139 2.063 L -0.288 0.195 Z" style="fill: rgb(57, 62, 63); fill-opacity: 1;"/>
        </g>
      </g>
      <g style="clip-path: url('#clippath0');">
        <g transform="translate(413.8235 257.2598)">
          <path d="M 0 0 C 0.256 -1.689 0.474 -3.384 0.712 -5.076 L 1.362 -10.159 C 1.587 -11.853 1.77 -13.552 1.973 -15.247 L 2.569 -20.338 L 2.578 -20.418 C 2.598 -20.579 2.597 -20.75 2.58 -20.905 L 1.91 -27.095 C 1.682 -29.157 1.475 -31.222 1.225 -33.282 L 0.5 -39.467 C 0.237 -41.526 -0.006 -43.588 -0.286 -45.646 C -0.432 -46.712 -1.414 -47.458 -2.479 -47.313 C -3.478 -47.177 -4.194 -46.3 -4.164 -45.315 C -4.092 -43.239 -3.982 -41.167 -3.894 -39.092 L -3.562 -32.874 C -3.459 -30.801 -3.313 -28.731 -3.189 -26.66 L -2.803 -20.447 L -2.791 -21.015 L -3.479 -15.937 C -3.704 -14.243 -3.95 -12.552 -4.153 -10.855 L -4.787 -5.771 C -4.978 -4.072 -5.187 -2.377 -5.36 -0.677 C -5.511 0.808 -4.43 2.133 -2.944 2.284 C -1.507 2.43 -0.216 1.413 0 0" style="fill: rgb(255, 203, 174); fill-opacity: 1;"/>
        </g>
      </g>
      <g style="clip-path: url('#clippath0');">
        <g transform="translate(415.6536 252.4365)">
          <path d="M 0 0 L -7.531 -1.008 L -8.447 5.834 C -8.726 7.914 -7.266 9.825 -5.186 10.104 C -3.106 10.382 -1.194 8.922 -0.916 6.842 Z" style="fill: rgb(148, 213, 224); fill-opacity: 1;"/>
        </g>
      </g>
      <g style="clip-path: url('#clippath0');">
        <g transform="translate(414.0989 209.2949)">
          <path d="M 0 0 C -0.295 -2.006 -1.598 -3.476 -2.911 -3.283 C -4.225 -3.09 -5.051 -1.309 -4.756 0.697 C -4.462 2.703 -3.159 4.172 -1.846 3.979 C -0.532 3.787 0.294 2.005 0 0" style="fill: rgb(255, 203, 174); fill-opacity: 1;"/>
        </g>
      </g>
      <g style="clip-path: url('#clippath0');">
        <g transform="translate(410.5969 210.125)">
          <path d="M 0 0 C -0.455 -1.061 -1.33 -1.704 -1.955 -1.436 C -2.58 -1.168 -2.719 -0.091 -2.264 0.97 C -1.81 2.031 -0.935 2.674 -0.309 2.406 C 0.316 2.138 0.454 1.061 0 0" style="fill: rgb(255, 203, 174); fill-opacity: 1;"/>
        </g>
      </g>
      <g style="clip-path: url('#clippath0');">
        <g transform="translate(389.4495 253.3403)">
          <path d="M 0 0 C -0.349 10.946 5.23 14.378 8.436 14.638 C 11.64 14.898 6.422 16.352 6.422 16.352 C 6.422 16.352 6.283 15.916 4.96 15.645 C 0.933 14.822 -0.702 6.941 -0.702 6.941 Z" style="fill: rgb(57, 62, 63); fill-opacity: 1;"/>
        </g>
      </g>
      <g style="clip-path: url('#clippath0');">
        <g transform="translate(400.7493 261.7515)">
          <path d="M 0 0 L -0.636 0.344 C -2.365 1.282 -3.442 3.092 -3.442 5.059 L -3.442 13.209 L 4.382 13.209 L 4.382 2.608 C 4.382 0.359 1.977 -1.072 0 0" style="fill: rgb(244, 189, 162); fill-opacity: 1;"/>
        </g>
      </g>
      <g style="clip-path: url('#clippath0');">
        <g transform="translate(408.2776 275.4492)">
          <path d="M 0 0 C -0.349 -1.527 -2.727 -1.267 -2.683 -4.11 C -5.069 -7.268 -8.507 -9.606 -13.555 -9.107 C -14.939 -7.525 -16.794 2.589 -14.688 7.367 C -13.234 10.666 -7.799 10.621 -5.848 10.336 C 0.112 9.468 1.264 5.537 0 0" style="fill: rgb(255, 203, 174); fill-opacity: 1;"/>
        </g>
      </g>
      <g style="clip-path: url('#clippath0');">
        <g transform="translate(392.5022 280.7891)">
          <path d="M 0 0 C -0.957 1.369 -0.624 5.236 1.735 5.117 C 4.095 4.999 4.204 5.327 7.419 5.489 C 10.635 5.651 13.298 6.374 15.2 2.74 C 12.746 1.527 11.108 0.292 8.12 -0.844 C 5.132 -1.981 1.248 -1.786 0 0" style="fill: rgb(147, 89, 63); fill-opacity: 1;"/>
        </g>
      </g>
      <g style="clip-path: url('#clippath0');">
        <g transform="translate(400.9934 280.0894)">
          <path d="M 0 0 C 1.786 0.343 3.085 -0.762 2.306 -2.451 C 1.526 -4.14 1.786 -5.406 1.786 -5.406 C 1.786 -5.406 3.118 -4.14 3.508 -5.406 C 3.897 -6.673 2.76 -9.45 4.138 -10.183 C 5.381 -7.29 8.134 -6.447 8.134 -0.47 C 8.134 1.057 8.449 3.387 6.709 3.44 C 4.969 3.493 0.357 1.154 0.357 1.154 Z" style="fill: rgb(147, 89, 63); fill-opacity: 1;"/>
        </g>
      </g>
      <g style="clip-path: url('#clippath0');">
        <g transform="translate(402.8733 275.481)">
          <path d="M 0 0 C 0 0 0.581 1.156 1.587 1.364 C 2.593 1.572 2.932 -0.446 1.054 -1.741 C 0.29 -2.314 -0.044 -2.238 -0.317 -1.848" style="fill: rgb(255, 203, 174); fill-opacity: 1;"/>
        </g>
      </g>
      <g style="clip-path: url('#clippath0');">
        <g transform="translate(407.4963 274.416)">
          <path d="M 0 0 L 0 0 C 5.479 0.92 7.906 7.426 4.37 11.71 C 0.756 16.089 -4.92 18.208 -10.52 17.267 C -15.998 16.347 -18.426 9.842 -14.89 5.558 C -11.275 1.178 -5.6 -0.94 0 0" style="fill: rgb(221, 172, 102); fill-opacity: 1;"/>
        </g>
      </g>
      <g style="clip-path: url('#clippath0');">
        <g transform="translate(396.7317 288.5635)">
          <path d="M 0 0 L -1.035 -2.775 C -1.557 -4.171 -1.387 -5.825 -0.303 -7.138 C 1.914 -9.824 5.395 -11.123 8.828 -10.546 C 10.508 -10.264 11.72 -9.125 12.24 -7.729 L 13.276 -4.955 Z" style="fill: rgb(186, 133, 69); fill-opacity: 1;"/>
        </g>
      </g>
      <g style="clip-path: url('#clippath0');">
        <g transform="translate(406.595 280.7925)">
          <path d="M 0 0 L 0 0 C 3.359 0.564 4.848 4.553 2.68 7.18 C 0.464 9.865 -3.017 11.165 -6.45 10.588 C -9.81 10.023 -11.298 6.035 -9.13 3.408 C -6.914 0.722 -3.434 -0.577 0 0" style="fill: rgb(201, 146, 80); fill-opacity: 1;"/>
        </g>
      </g>
      <g style="clip-path: url('#clippath0');">
        <g transform="translate(406.2444 279.8535)">
          <path d="M 0 0 C -3.434 -0.577 -6.914 0.722 -9.13 3.407 C -10.214 4.721 -10.384 6.375 -9.863 7.771 L -10.361 6.435 C -10.883 5.039 -10.713 3.385 -9.629 2.072 C -7.412 -0.614 -3.932 -1.913 -0.498 -1.336 C 1.182 -1.054 2.394 0.084 2.914 1.48 L 3.413 2.816 C 2.892 1.42 1.68 0.282 0 0" style="fill: rgb(204, 70, 70); fill-opacity: 1;"/>
        </g>
      </g>
      <g style="clip-path: url('#clippath0');">
        <g transform="translate(415.9778 284.5181)">
          <path d="M 0 0 L 0 -3.697 L -0.45 -3.81 L -0.566 -4.26 L 0 -3.988 C 1.125 -3.479 1.688 -1.984 1.688 -1.984 Z" style="fill: rgb(63, 122, 170); fill-opacity: 1;"/>
        </g>
      </g>
      <g style="clip-path: url('#clippath0');">
        <g transform="translate(414.6809 288.5439)">
          <path d="M 0 0 L 0 0 C 0 -3.258 1.738 -6.268 4.56 -7.897 L 14.275 -13.506 C 16.322 -14.688 18.881 -13.211 18.881 -10.847 C 18.881 -7.393 17.038 -4.201 14.047 -2.474 L 4.881 2.818 C 2.712 4.07 0 2.505 0 0" style="fill: rgb(63, 122, 170); fill-opacity: 1;"/>
        </g>
      </g>
      <g style="clip-path: url('#clippath0');">
        <g transform="translate(414.0803 288.2192)">
          <path d="M 0 0 L 0 0 C 0 -3.258 1.738 -6.269 4.56 -7.897 L 14.274 -13.506 C 16.322 -14.688 18.881 -13.211 18.881 -10.847 C 18.881 -7.393 17.038 -4.201 14.046 -2.474 L 4.881 2.818 C 2.712 4.07 0 2.505 0 0" style="fill: rgb(83, 140, 196); fill-opacity: 1;"/>
        </g>
      </g>
      <g style="clip-path: url('#clippath0');">
        <g transform="translate(417.1008 282.2612)">
          <path d="M 0 0 C 0 0 -0.563 -1.494 -1.689 -2.003 L -1.689 1.984 Z" style="fill: rgb(83, 140, 196); fill-opacity: 1;"/>
        </g>
      </g>
      <g style="clip-path: url('#clippath0');">
        <g transform="translate(419.4915 286.7148)">
          <path d="M 0 0 C -0.318 0.185 -0.565 0.189 -0.739 0.014 C -0.914 -0.161 -1.002 -0.495 -1.002 -0.989 C -1.002 -2.016 -0.668 -2.723 0 -3.109 C 0.28 -3.272 0.62 -3.387 1.019 -3.457 L 1.019 -4.275 C 0.69 -4.244 0.325 -4.11 -0.079 -3.876 C -0.659 -3.541 -1.104 -3.08 -1.411 -2.496 C -1.719 -1.911 -1.872 -1.239 -1.872 -0.479 C -1.872 0 -1.797 0.376 -1.646 0.649 C -1.495 0.922 -1.278 1.072 -0.995 1.101 C -0.712 1.129 -0.38 1.033 0 0.813 C 0.388 0.588 0.777 0.255 1.168 -0.188 L 0.896 -0.824 C 0.746 -0.656 0.596 -0.498 0.445 -0.349 C 0.294 -0.201 0.146 -0.084 0 0" style="fill: rgb(255, 255, 255); fill-opacity: 1;"/>
        </g>
      </g>
      <g style="clip-path: url('#clippath0');">
        <g transform="translate(422.1252 281.3301)">
          <path d="M 0 0 L -0.832 0.482 L -0.832 4.004 L 0 3.522 Z M -0.867 4.936 C -0.867 5.249 -0.717 5.317 -0.414 5.143 C -0.112 4.968 0.039 4.724 0.039 4.411 C 0.039 4.262 0.001 4.167 -0.074 4.128 C -0.15 4.089 -0.264 4.113 -0.414 4.201 C -0.717 4.375 -0.867 4.621 -0.867 4.936" style="fill: rgb(255, 255, 255); fill-opacity: 1;"/>
        </g>
      </g>
      <g style="clip-path: url('#clippath0');">
        <g transform="translate(424.6917 281.4766)">
          <path d="M 0 0 L -0.322 0.174 C -0.564 0.306 -0.744 0.359 -0.862 0.335 C -0.981 0.312 -1.04 0.205 -1.04 0.016 C -1.04 -0.255 -0.905 -0.468 -0.636 -0.625 C -0.443 -0.736 -0.289 -0.761 -0.174 -0.7 C -0.058 -0.639 0 -0.502 0 -0.29 Z M 0.245 -1.774 L 0.084 -1.202 L 0.062 -1.189 C -0.077 -1.312 -0.222 -1.37 -0.37 -1.363 C -0.519 -1.356 -0.712 -1.283 -0.95 -1.145 C -1.243 -0.976 -1.474 -0.745 -1.642 -0.455 C -1.811 -0.164 -1.895 0.16 -1.895 0.517 C -1.895 0.891 -1.781 1.101 -1.555 1.147 C -1.328 1.193 -0.986 1.094 -0.529 0.848 L 0 0.561 L 0 0.715 C 0 1.072 -0.158 1.342 -0.476 1.525 C -0.719 1.667 -1.006 1.748 -1.335 1.768 L -1.61 2.577 C -1.26 2.585 -0.87 2.466 -0.442 2.219 C -0.033 1.981 0.281 1.697 0.499 1.365 C 0.718 1.032 0.827 0.656 0.827 0.236 L 0.827 -2.111 Z" style="fill: rgb(255, 255, 255); fill-opacity: 1;"/>
        </g>
      </g>
      <g style="clip-path: url('#clippath0');">
        <g transform="translate(427.0393 280.2524)">
          <path d="M 0 0 C 0 -0.349 0.049 -0.641 0.148 -0.877 C 0.248 -1.113 0.409 -1.295 0.633 -1.425 C 0.854 -1.554 1.015 -1.558 1.112 -1.437 C 1.209 -1.315 1.258 -1.08 1.258 -0.729 C 1.258 -0.38 1.209 -0.09 1.11 0.141 C 1.013 0.373 0.852 0.553 0.628 0.683 C 0.405 0.811 0.245 0.817 0.147 0.701 C 0.049 0.584 0 0.351 0 0 M 2.109 -1.222 C 2.109 -1.795 1.979 -2.168 1.717 -2.339 C 1.454 -2.511 1.09 -2.461 0.622 -2.191 C 0.329 -2.021 0.07 -1.797 -0.153 -1.52 C -0.377 -1.242 -0.549 -0.93 -0.669 -0.583 C -0.789 -0.236 -0.85 0.122 -0.85 0.492 C -0.85 1.067 -0.719 1.439 -0.459 1.607 C -0.198 1.776 0.167 1.724 0.639 1.451 C 0.932 1.281 1.189 1.058 1.414 0.782 C 1.638 0.505 1.81 0.194 1.93 -0.15 C 2.05 -0.495 2.109 -0.852 2.109 -1.222" style="fill: rgb(255, 255, 255); fill-opacity: 1;"/>
        </g>
      </g>
    </g>
  </g>
</svg>